/* XPM */
static char *ox4s6_ub68u[] = {
/* columns rows colors chars-per-pixel */
"64 64 256 2 ",
"   c #050403",
".  c #0B0403",
"X  c #090906",
"o  c #0A0A0B",
"O  c #070807",
"+  c #140405",
"@  c #180808",
"#  c #16100F",
"$  c #260C09",
"%  c #2A160A",
"&  c #39190B",
"*  c #2C1415",
"=  c #3B1A19",
"-  c #361817",
";  c #320C12",
":  c #3A2418",
">  c #332514",
",  c #341D22",
"<  c #362925",
"1  c #3B352A",
"2  c #2F2C2A",
"3  c #461A15",
"4  c #4F1713",
"5  c #681915",
"6  c #462319",
"7  c #562618",
"8  c #4F3015",
"9  c #69281A",
"0  c #78361B",
"q  c #702E1A",
"w  c #482927",
"e  c #49372A",
"r  c #583628",
"t  c #4A3837",
"y  c #573939",
"u  c #4F2C2D",
"i  c #663827",
"p  c #793825",
"a  c #70342D",
"s  c #6A1825",
"d  c #71511A",
"f  c #584636",
"g  c #4E4530",
"h  c #7B4528",
"j  c #694735",
"k  c #774A35",
"l  c #67563C",
"z  c #71502D",
"x  c #716F2B",
"c  c #5E5A1B",
"v  c #5C3E42",
"b  c #673940",
"n  c #5A4446",
"m  c #564D45",
"M  c #66494A",
"N  c #795C47",
"B  c #674C52",
"V  c #6C5355",
"C  c #76595A",
"Z  c #675746",
"A  c #77644E",
"S  c #765C65",
"D  c #7A6566",
"F  c #6F6867",
"G  c #8D3618",
"H  c #A72E1A",
"J  c #853725",
"K  c #953A28",
"L  c #8C2D25",
"P  c #B3352B",
"I  c #A9171F",
"U  c #DD2D21",
"Y  c #904D1B",
"T  c #AE501B",
"R  c #B1671D",
"E  c #884527",
"W  c #964929",
"Q  c #99572A",
"!  c #894A35",
"~  c #885839",
"^  c #975835",
"/  c #8D512C",
"(  c #A84929",
")  c #B74A29",
"_  c #A9582A",
"`  c #B75729",
"'  c #B85B35",
"]  c #A85238",
"[  c #916C30",
"{  c #A9662A",
"}  c #B96A27",
"|  c #B76737",
" . c #B77937",
".. c #AF7232",
"X. c #8B661B",
"o. c #CE6F1A",
"O. c #C85B35",
"+. c #CF532C",
"@. c #E5522F",
"#. c #C76829",
"$. c #D66829",
"%. c #C8762B",
"&. c #D87929",
"*. c #C76835",
"=. c #C77736",
"-. c #D77738",
";. c #D56C34",
":. c #E57827",
">. c #E57836",
",. c #E66B2C",
"<. c #D65E17",
"1. c #8F5B43",
"2. c #996744",
"3. c #987958",
"4. c #8B6E52",
"5. c #A36B46",
"6. c #A77549",
"7. c #B2724B",
"8. c #846766",
"9. c #8F7872",
"0. c #AF7B69",
"q. c #C77743",
"w. c #CB7348",
"e. c #DC6A4B",
"r. c #798B2E",
"t. c #7D8C47",
"y. c #929131",
"u. c #B48F33",
"i. c #94AC31",
"p. c #AEB233",
"a. c #A9A21B",
"s. c #EC9418",
"d. c #EEB117",
"f. c #D8872A",
"g. c #D89828",
"h. c #CA8837",
"j. c #D68636",
"k. c #D89637",
"l. c #C9922F",
"z. c #E88928",
"x. c #E79829",
"c. c #F59728",
"v. c #E48837",
"b. c #E89936",
"n. c #F1932D",
"m. c #D8A937",
"M. c #D0B133",
"N. c #E9A726",
"B. c #F4B527",
"V. c #E8A736",
"C. c #E8B736",
"Z. c #F5BB35",
"A. c #F1AF2B",
"S. c #D19F1C",
"D. c #B3CA31",
"F. c #ADC41D",
"G. c #F5CF13",
"H. c #FDE619",
"J. c #CED12F",
"K. c #ECC439",
"L. c #F5C937",
"P. c #F2D32D",
"I. c #F8E830",
"U. c #DCDB22",
"Y. c #938E4C",
"T. c #B38E50",
"R. c #B1B04C",
"E. c #978972",
"W. c #B08F6E",
"Q. c #B5AD70",
"!. c #95B44A",
"~. c #C98848",
"^. c #D68949",
"/. c #D79749",
"(. c #D79857",
"). c #CB8E53",
"_. c #E59A45",
"`. c #E4914E",
"'. c #DBA74B",
"]. c #D3AF53",
"[. c #E8A748",
"{. c #EAB846",
"}. c #E9B859",
"|. c #EFAF51",
" X c #CE956A",
".X c #E59B63",
"XX c #DAA464",
"oX c #C9A577",
"OX c #D6A978",
"+X c #D8B777",
"@X c #CFAE6A",
"#X c #E7B667",
"$X c #E7B977",
"%X c #E9AB6C",
"&X c #B8CD49",
"*X c #D4CC50",
"=X c #E7C648",
"-X c #F5C847",
";X c #ECC655",
":X c #F4C758",
">X c #F6D658",
",X c #EFD648",
"<X c #F7EB55",
"1X c #D6CA71",
"2X c #F5D86A",
"3X c #EECD71",
"4X c #F5EA70",
"5X c #DBE46D",
"6X c #957D80",
"7X c #978889",
"8X c #9C9392",
"9X c #978A8D",
"0X c #A79595",
"qX c #AC958B",
"wX c #B8AD90",
"eX c #AD9FA2",
"rX c #BAADAE",
"tX c #D7B687",
"yX c #CEB091",
"uX c #E7B987",
"iX c #E9B18C",
"pX c #CDB7AD",
"aX c #DA9788",
"sX c #D7C990",
"dX c #E7C888",
"fX c #F5D58A",
"gX c #E7C798",
"hX c #E9D69A",
"jX c #F3DA97",
"kX c #EDD288",
"lX c #F6E685",
"zX c #F6E697",
"xX c #F3F091",
"cX c #D5CCAF",
"vX c #E8CAA6",
"bX c #E9D6A7",
"nX c #F4D6A6",
"mX c #E7D8B7",
"MX c #F1D8B9",
"NX c #F7E5AA",
"BX c #F6EAB7",
"VX c #F8F6B8",
"CX c #EFE9B0",
"ZX c #D4D0CA",
"AX c #E7DCC8",
"SX c #F2E9C5",
"DX c #F9F5C8",
"FX c #F9F7D9",
"GX c #EEE8D3",
"HX c #EBE9E6",
"JX c #F9F7E8",
"KX c #FDFEFD",
"LX c #FAFAF5",
"PX c #F0EFE4",
"IX c #E1DFDE",
"UX c #CFBCC0",
/* pixels */
"o o o o o o o o o o o o o o o o o o o o o o o o o o o o o o o o o o o o o o o o o o o o o o o o o o o o o o o o o o o o o o o o ",
"o o o o o o o o o o O O O o o o o o X X o o o o o O o O o o o o o o o o o o o o o o o X O O o o o o o o o o o o X o o O   X o o ",
"* * * * * * * * - e n M y < , - - - - * * * * * , y n v e w w < - , - - - - , - , - - < < w < * * * * * * * * = w r r N 4.N f f ",
"6 = - - - - - = w M 8.8.C y u w w w w w w w - 4.N B 8.C M n v y t u w u u u u u u u u u y y w - - - - = = = 3 w r j j T.oXW.N N ",
"w 3 - - - - - - w n D 8.C M y u y y y y y w V zX@XB 9.C M M M n y y y y y y M M y n v y v y , - - - = = : 6 w r y e r 3.OXOX3.4.",
"r w = - - - - - 6 n C C C C M n M M B V V n 3.-X<X9.D 8.V V B V M M M M M n R.*XB V V M M M l = - = w f l j r y e : j 3.OXtXoXW.",
"i r 6 = - - - - 6 y V V C C C M B C D 8.D D (.Z.<X1X8.D V W.8.V V v M C V B p.U.R.8.D V Y.p.D.c ; e l 4.3.W.3.r : 1 l 3.OXsXgXoX",
"k i u 6 3 - - - 6 y V M V 8.C V V D 9.9.9.3.>.L.,X<X].S B W.@XV B 4.8.C V B y.U.I.R.S Y.J.F.D.x - l Z l 4.E.E.f > e N 4.yXgXnXtX",
"k j r u w = - - = y V V C D C B V D 8.9.9.8.&.B.s.j.L.T.9.+X4X X5.^.yXcX8.M Y.J.U.J.Y.J.D.D.D.c < l l l A 4.A g < t N A Q.gXnXtX",
"~ k j r w 6 = = = y C C C B D E.C V V D C V 5.c.V.+.z.>XdX7.T.*.*.7.5.oXgX8.l J.U.J.J.J.D.p.i.g < f f l A Z f e 2 e Z Z W.dXgXtX",
"~ ~ k j r u w 6 w y D 8.V qXdX`.7.D Q.$XcXC u ) c.v.z.b.q.] 2._  .7.W 7.T.(.yXU.U.D.J.J.D.i.i.e < e g l A Z e 1 < e Z f 4.OXdXoX",
"2.2.~ k j i r w w y C C yXuX(.' ~.<X2Xc.zXJXE.C >.:.>.( L J p W ^ W ] 6.Q | aX}.U.D.J.U.D.i.x - < 1 e Z Z g 1 < < e f e N W.OXT.",
"2.2.2.~ k k i r r y M C gX(. X0.2Xb.#XZ.;XVX4XVX^.,.o.E 9 5 E Y E E ( | ^ W G q.,Xi.J.I.i.y.e * < 1 g Z m 1 1 : 7 r r w j T.~. .",
"2.5.2.2.~ ~ k j i j j C yXq.W W.-X<.].J.M.,XI.H.P.+.&.2.i 7 E / J p W ( ' { ..W /.p.y.p.i.r.y.1 > 1 g m m 1 < 3 G q 8 8 d .. .{ ",
"5.6.6.2.2.1.~ k j j i N mX7.0 sX2X:X5XF.D.*XlX4X<XP | ~ p p q / Q E p K ] R 3XW.] :.M.p.*Xi.i.i.2 2 1 g t 2 * & J 3 6 8 h d X.Q ",
"5.6.5.6.2.2.~ ~ k k i qXFX XG mX2XnXOXD.D.p.kXDX4X^.^.! a 9 q J W Q / / ] T tX0.( ~.>XI.H.J.!.D.r., 1 g 1 2 # $ 3 $ % i 8 % 7 0 ",
"2.5.5.5.2.2.2.~ ~ ~ h cXLXE E FX2X3XHXhXD.p.p.CX4XK.b.E p q J p J _ { Q Q T oXW.H ~.XXV.G.P.R.&XR.< 1 1 g e # $ $ $ + & & @ 8 8 ",
"2.2.5.5.2.2.2.2.1.k 3.MXLXk W zX4X2XBX4Xp.J.i.1XI.B.Z.` L K W q J ..T.Y E Y  XW.a +XOX X3X4XC.1XR.l , 2 j r # @ % 6 $ $ 6 % 6 7 ",
"[ 2.2.2.2.2.2.2.~ qXGX XCXp 9 2X<XVXBXfXm.J.p.i.K.V.L.` s 5 ^ W.q 0 yX7.G 0 ~.W.W.yX| dX!.R.P.2XsXR.x x 3.4.% - > & : & & @ % & ",
"^ 2.2.2.2.2.2.~ yXLXAXtXvXW 3.3XI.4XBXzXzXJ.D.y.m.A.I.N.].W.M qXiXW wXHX_ E ^.m.OX3.W.*Xi.!.,X>XKXkX5XN.:X}.z @ % % % 3 % % 6 & ",
"^ 2.2.2.2.~ 2.cXKXKXSXSXVXyX=X>XP.G.3X<X,X*Xp.X._ z.-XG.H.VXJX+X^ a W.mX3X} #XG.W.8.sXi.i.r.hXVXVXFXJXuXC.b.:X2 @ & @ & 3 3 7 6 ",
"~ ~ ^ 2.~ 2.mXKXKXKXhXpXxXxX<X'.:.s.}.N.-X2Xb.` } z.B.d.A.*X/.H.T.u.m.P.<Xl.g.G.R.T.p.i.y.c oXDX,XDXCX4X3Xf.|.wX. & + & & & % 8 ",
"~ ~ ~ ! z mXKXLXKX4X4XPXDXxX4Xv.@.$XhXv.[.&.:.*.,._ Q n.:.d.%.C.S.v.L.G.G.g.:.L.G.U.cXQ.x x 7.3X2XDXzXB.-.<.N.BXn $ % & % % % > ",
"! ~ h E.wX1XJXLXFX4XVXFXDX:X-X>.U aXNXj.'.[._.;.$.( < ^ w.kXAX+XjXpXj.m.4X3XpXj.V.4XmXy.x [  XjX}.:X;XV.} m.n.%XcX> . % @ % 8 > ",
"k h 9.LXcXY.sXMXJXDXJXFXBXV.n.e.%XXXbX}.sXzX_.s.c.O.p t / MXSX+XGXCX{.Z.3XPXmX[.L.-Xm.R.y.l.xXGXdX}.3XC.S.J.;.$.dXZX< % 6 > z d ",
"i 4.JXJXcXy.R.jX>X4XDXVXzXA.$.aX4X4XxXlXbX3X{.K.V.V.-.p { {.>.{.N.`.nX<.l.[..XfXo.R g.k.C.h.,XFXBXdXbXZ.g.J.=.:.'.BXHX[ Y r z [ ",
"k IXLXJXbXy.Y.p.2XJXjX{.{.C.$XlX,X-X4XXXNX|.[.}.PXVX3X#.N.G.d.K.N.-. X' d.G.x.mX*./.~.#.=X2X{.*XVX@Xd.V.C.M.k.h.R.i.SXPXd $ 8 f ",
"cXKXJXFXbXy.y.X.W.DXC.:.x.>XzXL.2X}.>X>XhX[.XXNXzX2XkXI.G.&.f.XX) / f.f.&.{.H.I.=Xk.u.p.D.&Xy.a.>X2XN.A.-XM.u.p.R.Y.r.PXZX+ % % ",
"LXJXnX$XbXy.X.x d u.Z.s.L.T.j =X{.lX}.-X^.x.uX).f.I.fX;XG.G. X%X%.%.I.3X[ Y...G.M.z [ x [ x y.b.|.;X_.G.<XkX1Xp.i.R.r.Q.KX8X. % ",
"GXMXnX1XhXy.d [ d c u.$XVXcXe V.hXz.n.:.$.O._ 7.K.G.s.&.z.G.<X$X-Xd.L.xXf.0 ~ [ M.c r c c x x.s.#X:X>XN.lXHXFXDXBXsXR.t.PXKXm   ",
"AXLXKX=XzXT.c [ d c / yX4X1Xy s.K.T ;.>._ ^ '././.*.( *.$.d.G.jXFX-X>XjXG _ @Xd l.Y.2./ x k.n.b.XXK.Z.{.{ ~ >X;X$XtXl.t.Q.JXZXX ",
"HXKXIXS.<X].8 { =.[ p { H.U.u.Z.G.:X(.| 1.~ { ].| 7._ G ( N.x.lXFXNXzXW.~ 0 T./.%.[ wX6. .&.-.XX$XL.A.P.E Z >Xk.h  Xn.R.wXJXKXF ",
"HXSX].B.H.1Xc { XX X0 ..P.P.G.d.zX3XXX2.~ N b W.2.q.v.K W k.) _.3XVXvXn 1.*.bXVXT.{ yX+X'.:.#.%X{.L.;Xj. .8XBXY ^ %Xc.B.4XSXPXZX",
"JXXXN.<XH.P.c u.Y 3.W 7 =XP.>XNXuX$.7.6.qXHXcX7.J J | W ] P ' &.>.6.w * 3 (.lX).} -.].{.m.f.N.>.$.(.|.b.=.yXSX0 { :X:X,X,XzXHXIX",
"KXiXf.4XJ.4X4.{ W.sXT 3 u.L.4XkX' K u.2.W.qXvXK 7 p O.' K h W k.) @ < / 1.4XB.) $.k.P.G.P.g.+.U @.@.;.[.-..XXX0 T._.:X2XK.SXLXIX",
"PX$XC.p.y.xXT.2.ZXT.^.4 q c.N.=X/.7.l.h S.hX^ ^.! p K O.E ! 7..X1XA  X(..X2XL.N.f.m.P.V.B.G.*.P ] e.aX$X_.v.{ G mXBXz.-XL.}.GXHX",
"HX3X,Xp.R.>X1X6./ p W.0 3 :.s.K.B.T h.T.=X].0 XXp ; / ) p ^  X'.[..XvXJXmX>.N.G.G.:XfX;Xx.z.}. XK  X XgX+X' p W 3XxX;X{.[.*.SXHX",
"GX>X>Xp.R.,XVXOX#.R W._ 5 ` s.|.3X(.].U.lX1Xg.XXt > Y 5 E yXyXq.G ] w.iXbX-.:.k.G.V.3XDX}.&. .oX{ 7.w.%X+X/ q #.-XG.<XPXvXpXJXZX",
"mX{.U.p.*XxX2X{.iX,X=X~.5 p } .XIXmX&Xi.yX:XT =.h j yXa N IXOX( J ! J O.k.x.s.v.d.I.C.#XOX#.| 6.T.^ ] w.3X0 p 3XXXN.d.4XKXJXLXcX",
"tX3XC.J.5XDXL.>.e.zXNX>Xq ~ _. X.Xg.D.y.^ V.7 Q ~.MXAXa k oX| J p ! p | ^.l.C.z.G.G._.=.q _ 7./ | p ! w.NXqXQ.lXO.[.s.P.xXJXLXcX",
"mXbX3XK.K.CXZ.@.U @.v.G.T 7 ).uX.XM.i.l.v.k.Q | ~.>XY 7 6 K ] 9 k j 7 ^ (.1X^.A.G.d.|. .h.'.E p ( i a K /.mXSX`.) uX|.P.<X2XCXcX",
"HXbX#XC.[.JX:XU U U U s.&.4 i 3XcXQ.r.u.^.v.j.h.zXCX).0 4 - 4 i a 7 3 p w.~.l.K.C.{.=X3X'.V.zX3.q p q W.}.(.AXq.#.jXdXP.{._.mXHX",
"HXSX}.}.bXlXb.U U U U @.,.5 = C.lXW.x  .h.f.#.fXmX).| =.0 * 3 7 i & 4 J w.).*XlXfX}.D.&X5XB.}.~ ; q p tXq.}.tX| } zXSX3XNXmXLXHX",
"HXGXNXbXjXK.%XiXe.I P P +.L - C.c.~.i...'.=.].u./ &.%.*._ ; 4 7 i & q K -.#XNXBXXXh.p.r.R.v.V.8 ; 9 ..W.! b.kX7.oXzX#XdXOXbXLXHX",
"HXAXSXDX,X,XDXnX:.H P H +.H u >Xs.%.y.~.V.j.3XG L ' [.k.R 4 3 3 3 9 _ _ j.^.DXbX' 7.x p.4X;.>...h p  .2.1.} :X~.BX:X,X+XXXGXHXHX",
"9XLXvXSX;XN.,Xs.@.@Xj.}.*.H 3.>Xs.{ [ ;Xh.J /.%.K m.V.3X^.W.e ; & E ' ` ;.^.zXtX5.7.y.{.w.+.b.j.q 4 | ! 4.~ V.|.k.4XV.#XSXcXLX8X",
"* ZXFXmXbX^.3X}.iX|.{.3Xk.) sXZ.o._ d ].=.! T.G ..x.z.}.:X#XcXw 4 W ( #.%.j.;X^.7. Xl.#.O.) '.-Xg.Q ^ 4.4.1.W -.nXFXyXdXFXGXPX< ",
"+ t JXLXPXbX=XFX$X<.{.#Xo.$XhX&.#.` T.l.7.dXtXJ *.L *.c.z.N.).= 7 W ) f.k.%.j.h.] ~.l.$.j.=.V.l.` | 9 1.qX~ ! %.|.#XvXCXHXKXF + ",
"$ . F KXJXSXBXuX<.,.{.x.V.:X=.` ( H aXXXbXsXoXK L P O.z.+.b.q.i & E =.f.f.l.h.f.0.). .;.v.'.Z.f.N./ 3 i 0.2./ &.<.j.vXHXKX8X+ $ ",
"@ @ . D LXDXmXgX=.z.V.c.v.,.) >.| H  XiXtX X).| ( ` +.c.*.v.Q i 3  ._ %.h.=.f.%.0.^.x.c.[.gXd.B.A. .7 9 J ^ ..#.) uXPXKXrX+ @ @ ",
"@ @ @   m DXbXyXdXv.*.$.T O.=.fXtXH iXpXOXw.%Xq.#._ ~.|.( z...; X.=.5 0 W K ` f.] )._.f.BXhXG.A.R 9 8 d 9 E l.R `.mXKXrX@ + @ @ ",
"@ @ + @   < yXnXyXtX3Xq.T ] 1X{ oX7. XFX(. XdX>.&.%.=._.f.c.z.6 l.x.Q 5 L L P f.%.^.(.N.mXDXVXvXMXC X.k.E 8 =.^.tXLXpX# + @ @ @ ",
"+ + + + @ . + 9.vXMXNXoXOX .XX XW.iX{ dXOXzX] %.n.%.#.f.A.x.A.i { A.Q s J K P $.} %.&.G.).(.L.2XbX/.{ `.| ~  XoXMXeX# . @ + + @ ",
"+ + + + + @ .   r OXfX$XdXdX(.uXmXvX~.kXvX#.#.V.n.) $.v.m.A.} i d f.W ..9 { { ) ' $.c.G.%.L s.g.h.R ].OXXX(.uXgX8.. . @ + @ + @ ",
"+ + + + + . + X   $ 2.$XfXvXdX$X+XbX$X(.).@.z.-.>.+.O.#.;Xf._ i 8 z.x.j._ g.=.O.>.>.z.b.*.*.x.h.` =.tX X`.%XaXt   . @ + + + + @ ",
"@ + + + + + . . .   . u  XNXnXgXnXjXkXXX] ^.|.+.*.@.+.~.g. .{ h i f.x.x.A.B.%.>.>.' #.f.f.f.#.j.(.OX X.XtX9.#   + + + + + + + @ ",
"@ @ @ + + + . . . . .   @ N gXnXnXbXgXhXBXMXdX(.| *.>.XXf.l.l.h Q x.W Y =.f.V.=.( _ (.#X(..X%XuXgX%XaX9.2   . + + + @ + + + @ @ ",
"@ @ @ @ @ + + + . . + + .   * A sXBXVXDXDXJXFXBXdXuX%X|.k.h.u.2.q.-./ 9 _  .^ | | ^.$XjXjXfXjXnXpX9.2     @ + + + @ @ @ @ @ @ @ ",
"@ + + + + + + + + . . . . .     + y W.mXDXFXBXFXFXSXmXvXtXgXgXtXuXhXvXuXOX(.^.#.=._./.$XbXyXE.m #   . + + + + + + + + + + + + + ",
"D D V B n n n y t t t t t t t t t t w n 9.qXyXcXAXSXDXSXBXDXDXFXFXDXDXDXNXdX(.).oXyXwX7XF n t t n n n n n n n n n n B B V S D D ",
"pXpXrXeX0X9X7X7X6X6X9.9.9.9.6X6X6X7X7X9.9.9.9.9.E.qXqXyXyXyXyXpXpXpXpXyXyXwXeX0X8X9X7X7X9X0X0X0X0X0X0X8X8X8X0X0X0X0XeXeXrXpXUXpX",
"eXeX0X8X9X7X7X7X7X7X7X7XE.E.7X7X7X7X7X7X7X9X9X9X9X9X7X9X9X9X9X9X7X7X7X7X9X9X9X8X8X8X0X8X8X8X8X9X9X9X9X9X9X9X9X9X8X8X0X0X0XeXrXeX",
"O O X X X X             X X               X X       X   O O O O   X X X o o O O X X X X X X             X     X       X     X o ",
"o o o o o o O o o o o o o o o o o o o o o o O O o o o o o o o o o O O O o o o o o o o o o o o O o o o o o o o o o o o o o o o o "
};
