/* XPM */
static char *r0qaa_njj5f[] = {
/* columns rows colors chars-per-pixel */
"64 64 238 2 ",
"   c #3C603E",
".  c #5B4F39",
"X  c #73653F",
"o  c #2D4A48",
"O  c #396751",
"+  c #3B6448",
"@  c #1A576C",
"#  c #1A5D74",
"$  c #184F62",
"%  c #2B5C6C",
"&  c #1D657C",
"*  c #1F687F",
"=  c #21657B",
"-  c #21687E",
";  c #266175",
":  c #346F71",
">  c #134A5E",
",  c #5B6643",
"<  c #7B7C48",
"1  c #6D7149",
"2  c #605E60",
"3  c #4F6F76",
"4  c #6B7569",
"5  c #A50A0C",
"6  c #DA401C",
"7  c #E86033",
"8  c #84765A",
"9  c #897751",
"0  c #A97551",
"q  c #8F7E62",
"w  c #AA5340",
"e  c #C35844",
"r  c #EA7350",
"t  c #7E8556",
"y  c #6D827A",
"u  c #F1923B",
"i  c #8C8556",
"p  c #978557",
"a  c #96925C",
"s  c #A78C5C",
"d  c #9A8767",
"f  c #9A996D",
"g  c #A28E6C",
"h  c #A69567",
"j  c #A39473",
"k  c #AA9774",
"l  c #B29973",
"z  c #B79F78",
"x  c #BA956E",
"c  c #BBA47E",
"v  c #B6A474",
"b  c #B1AC70",
"n  c #DF8157",
"m  c #ED9C4C",
"M  c #D48565",
"N  c #C89C78",
"B  c #D49272",
"V  c #EC9268",
"C  c #C8A87C",
"Z  c #D4A87B",
"A  c #CFAF74",
"S  c #FAA464",
"D  c #F5B677",
"F  c #EFAA7B",
"G  c #F2CE75",
"H  c #EBD367",
"J  c #1D6982",
"K  c #196C87",
"L  c #1B7796",
"P  c #216C83",
"I  c #296E85",
"U  c #23738D",
"Y  c #2B748B",
"T  c #287087",
"R  c #37768B",
"E  c #237791",
"W  c #2A7A93",
"Q  c #257E9A",
"!  c #267A95",
"~  c #377D94",
"^  c #0075A4",
"/  c #067AA5",
"(  c #0C7DA5",
")  c #0A7FA8",
"_  c #117FA6",
"`  c #467A87",
"'  c #37858A",
"]  c #25819D",
"[  c #2A819D",
"{  c #2C8A9E",
"}  c #358698",
"|  c #1580A6",
" . c #1983A7",
".. c #1484AB",
"X. c #1A85A9",
"o. c #1E89AC",
"O. c #1D8CB2",
"+. c #0F80A7",
"@. c #2586A5",
"#. c #2688A7",
"$. c #2C89A7",
"%. c #238BAE",
"&. c #2B8CAB",
"*. c #2B86A3",
"=. c #348BA3",
"-. c #338EA9",
";. c #368AA6",
":. c #2E94AE",
">. c #3C91A9",
",. c #3591AA",
"<. c #268EB0",
"1. c #288FB0",
"2. c #2691B4",
"3. c #2993B4",
"4. c #2997B8",
"5. c #2C9ABB",
"6. c #2B99B8",
"7. c #3395B4",
"8. c #329DBE",
"9. c #389AB7",
"0. c #318FB0",
"q. c #3DA2BF",
"w. c #4B9099",
"e. c #528A91",
"r. c #729490",
"t. c #62A59E",
"y. c #4A96AA",
"u. c #4796AA",
"i. c #549BAB",
"p. c #5C9EAB",
"a. c #5D9DA4",
"s. c #499CB6",
"d. c #629EA6",
"f. c #709EA4",
"g. c #5DA7AD",
"h. c #49A4BC",
"j. c #59A9B8",
"k. c #63A1AC",
"l. c #6BA4AD",
"z. c #6AA2A4",
"x. c #76A8AB",
"c. c #69A8B4",
"v. c #69B1BE",
"b. c #78B4BB",
"n. c #75B0B2",
"m. c #2C9EC1",
"M. c #299DC5",
"N. c #349FC0",
"B. c #389FC3",
"V. c #2EA0C4",
"C. c #2CA3CD",
"Z. c #34A1C4",
"A. c #3BA2C2",
"S. c #34A4C9",
"D. c #3CA7C9",
"F. c #3DAACC",
"G. c #35A8CF",
"H. c #3AAAD0",
"J. c #36A8D0",
"K. c #43A6C4",
"L. c #42AACB",
"P. c #48A9C7",
"I. c #56AEC7",
"U. c #43ADD1",
"Y. c #4FB0CB",
"T. c #61AFC0",
"R. c #66B2C4",
"E. c #72B6C4",
"W. c #8B9488",
"Q. c #A89D87",
"!. c #B39283",
"~. c #9AB292",
"^. c #BCA783",
"/. c #AFB694",
"(. c #84AEAE",
"). c #83A4A7",
"_. c #8BB1AF",
"`. c #96B6AE",
"'. c #8BB8B6",
"]. c #9BBAB2",
"[. c #94BEB8",
"{. c #A3BCB0",
"}. c #A9BEB1",
"|. c #BDA2AE",
" X c #B79CB1",
".X c #C7AB84",
"XX c #CAB586",
"oX c #D2B98B",
"OX c #D7B785",
"+X c #D9BF93",
"@X c #C7B894",
"#X c #EAB688",
"$X c #F3B783",
"%X c #CDB2A5",
"&X c #EA9686",
"*X c #97C1BC",
"=X c #B9C5AD",
"-X c #A7C4B6",
";X c #BBC5B2",
":X c #B5C4B3",
">X c #B9D5B7",
",X c #D9C18D",
"<X c #DDC393",
"1X c #DDC09F",
"2X c #CDCA96",
"3X c #F5C48D",
"4X c #E6CA96",
"5X c #EBCC9B",
"6X c #E5C597",
"7X c #F2CD97",
"8X c #EDD19D",
"9X c #F2D39E",
"0X c #FBD79F",
"qX c #FED99E",
"wX c #F5D294",
"eX c #FFD783",
"rX c #C9CBAB",
"tX c #D5CDA5",
"yX c #D3CDA9",
"uX c #DBD1A8",
"iX c #C3CAB2",
"pX c #CBCCB4",
"aX c #D1CEB4",
"sX c #D6D3B3",
"dX c #EED4A2",
"fX c #E5D2A5",
"gX c #F3D5A1",
"hX c #F9D6A0",
"jX c #F6D9A4",
"kX c #FBDBA5",
"lX c #FEDEA9",
"zX c #F5DCA8",
"xX c #E4C9A5",
"cX c #FFE4A5",
"vX c #FFE3AB",
"bX c #F6E0A6",
"nX c #87BEC4",
"mX c #98C5C1",
/* pixels */
"| | _ _ | ( ( _ ( | _ ( _ _ _ | | | | ( ( | ( ( _ ( | _ / _ _ ( _ | _ | ( _ _ _ | ( ( | | | | | | | _ _ _ _ ( _ _ | ( ( _ ( ( | ",
"| _  .@.| -.-.@.-.|  .>. . . .| _ _ ( ,.-.| -.-.#.-._  .>. .@.>.#.| #.| $.p.>. . .-.-.| _ _ ( | _ (  .@. .#.-. . ._ -.>.@.>.#._ ",
"| / p.l.( iXl.].].( i.:X].{.#.^ x.d.p._.l.y.iXl.}._./ k.].x.{.}.#.>._./ l._.}.-.>.pXp.( _.#.i.k.-._.p.k.>.:X}.`._.`.(.i.(.:X>.( ",
"| / p.].>.aXk.l.;X$.i.;Xp.}.p.>.aX;X}.l.{.}.iXp.x.;X .l.(._.iX}.X.>.:X>.( _.;Xl.g.pXy.( ;X:XpX_.].sX].(.x.}.;X{.(.;Xl.#._.;X$.( ",
"| _ #.l.i.p.p.y.k.| $.>.^ y.l.i.-.>.>.d.p.#.k.i.y.p.| -.x.>.u.x.,.%.l.k.X.u.i.x.i.l.i.X.u.,.-.y.y.-.y.i.p.$.>.u.y.#.p.k.u.l.>.( ",
"| | _ / / / / ( / | ( (  .( / / ( ( ( / / _ / ( ( (  ...) ....+.X.o.....%.X.X.........o.......| +.| ( ( / _ ( ( ( _ / / ( / ( | ",
"| | | | | | | | | | | | | | | | | | |  . .|  . .X.X.X.o.%.%.%.%.1.1.2.2.1.2.2.1.1.1.&.%.%.%.%.o.X.X.X. . .| | | | | | | | | | | ",
"| | | | | | | | | | | | | | | | | | | | |  . .X.X.X.o.%.%.1.1.2.2.3.3.3.3.3.3.2.3.2.2.2.1.1.%.%.o.o.X.X. .| | | | | | | | | | | ",
"| | | | | | | | | | | | | | | | | | | |  . .X.X.o.%.%.1.1.2.2.3.4.4.4.4.4.4.4.4.4.4.4.3.2.2.&.%.%.%.o.X.X. .| | | | | | | | | | ",
"| | | | | | | | | | | | | | | | | | |  .X.X.X.o.%.%.1.2.2.3.4.4.4.5.6.5.Z.Z.Z.Z.Z.m.m.V.5.m.5.4.4.%.%.o.X.X. .| | | | | | | | | ",
"| | | | | | | | | | | | | | | | | |  .X.X.X.o.%.2.4.6.5.5.5.5.5.Z.8.Z.$.[ Q Q @.Q Q E = E & J U U 2.1.%.o.X.X. .| | | | | | | | ",
"| | | | | | | | | | | | | | | | | | X.X.o.%.%.2.] U Q @.E [ [ &.Q 7.D.3.~ : Q.0 3 ! W T W P P U E 3.2.1.%.o.X.X. .| | | | | | | ",
"| | | | | | | | | | | | | _ | | |  .X.o.o.%.%.4.U # J P = Q % o o ,.U.iXfX.XM /.R.G.F.G.S.S.Z.m.5.4.2.2.1.%.o.X.X. .| | | | | | ",
"| | | | | | | | | | | | | | | |  .X.X.o.%.1.2.3.5.m.5.' + : O , 4 h.x 7 9XhXe M yXrXrXb.h.N.8.6.4.4.4.2.1.1.o.o.X.X.| | | | | | ",
"| | | | | | | | | | | _ _ | |  . .X.o.%.%.2.2.4.4.6.8.} ' 3 e.f <XB 6 n gXgXzX5X0XqX0XqX'.V.A.8.6.4.4.3.2.1.%.o.X.X.X. .| | | | ",
"| | | | | | | | | | | | | | X.O.O.O.<.2.4.6.5.m.m.S.G.A.S.` tXhX$XF 3XzXgXgXgXgXgXgXdXqX:XZ.A.N.8.6.4.4.3.2.1.%.o.o.X.X. .| | | ",
"| | | | | | | | | | | | | ..K # K K Q E U E ! U Q U Y : 4 9 4XV r F zXgXgXgXgXgXgXgXgX0XyXL.A.A.N.5.6.4.4.4.2.1.%.o.o.X.X. .| | ",
"| | | | | | | | | | | |  .X.L # J & Q P J U U - ! I Y w.N &XB #X3X9XgXgXgXgXgXgXgXgXgXhXdXR.U.A.A.8.5.6.4.4.3.2.1.%.%.o.X.X. .| ",
"| | | | | | | | | | | .. .X.o.O.2.2.3.5.5.5.5.Z.Z.F.9./.OXXX5X5XjXgXgXgXgXgXgXgXgXgXgXgXwX`.-.h.A.8.8.6.6.4.4.2.2.%.%.%.o.X. .| ",
"| | | | | | | | |  .X.X.o.O.<.<.1.3.4.4.5.5.Z.Z.D.D.e.p i x $X9XgXgXgXgXgXgXgXgXgXgXjXoXt i t h.U.L.A.S.Z.5.m.5.5.5.4.%.o.X.X. .",
"| | | | | | | |  .X.X.o.L L L ] #.] ] #.Q ] [ $.=.$.mXOXdX3XS qXjXgXgXgXgXgXgXgXgXgXhX8X8XZ XXe.=.[ Q U Y *.U U & & U 2.%.o.X.X.",
"| | | | | |  .X.X.X.X.<.J @ @ U J & J Q - ; T Y ; W e.Z Q.2 W.2 @XkXgXgXgXgXgXgXgXgXgXgXvX<XC x j j r.: Y [ U U & & U 2.%.%.o.X.",
"| | | | |  .X.X.X.o.%.%.3.4.5.4.5.5.5.5.Z.S.D.L.H.mXqXjX4X.X+X^.5XhXgXgXgXgXgXgXgXgXgXgXF V S D a < p 1 w.S.S.Z.V.m.5.2.%.%.o.X.",
"_ | | | | X.X.o.o.%.1.2.2.3.4.4.5.6.5.8.8.A.A.P.F.[.qXgXjXlXkXcXhXgXgXgXgXgXgXgXgXgXgX9XV r #X8X<XoXN wXc.F.D.Z.m.5.5.5.5.1.%.o.",
"| | |  .X.X.o.o.%.1.2.3.4.4.5.6.8.8.A.Z.Z.D.L.H.E.rXhXgXgXgXgXgXgXgXgXgXgXgXgXgXgXgXgXgXgX9XjXgXlX6Xl nX9.Y =.$.[ #.] ! P #.1.%.",
"| | |  .X.X.o.%.1.2.3.4.4.6.5.8.q.Z.Z.P.I.R.Y.*XiXyXhXgXgXgXgXgXgXgXgXgXgXgXgXgXgXgXgXgXgXgXgXgXm m C d.p.; Y T W U P * # #.2.%.",
"| |  .X.X.o.%.1.2.3.4.4.6.8.N.A.Z.P.=XfXdXgXfXhXqXhXgXgXgXgXgXgXgXgXgXgXgXgXgXgXgXgXgXgXgXgXgXjXD u D dXgXsXY.D.D.Z.V.m.m.4.2.1.",
"| | X.X.o.%.1.2.3.4.4.6.8.N.A.A.b.tXqXhXhXgXhXgXgXgXgXgXgXgXgXgXgXgXgXgXgXgXgXgXgXgXgXgXgXgXgXgXjXgX9XkXlXkXmXH.L.Z.6.6.4.4.2.1.",
"|  .X.X.o.%.1.2.4.4.6.5.N.A.Z.v.qX0XgXgXgXgXgXgXgXgXgXgXgXgXgXgXgXgXgXgXgXgXgXgXgXgXgXgXgXgXgXgX9XhX8XXXv l , : : :.Z.6.5.4.3.2.",
" .X.X.o.%.1.2.3.4.6.5.N.Z.C.I.-XgXgXgXgXgXgXgXgXgXgXgXgXgXgXgXgXgXgXgXgXgXgXgXgXgXgXgXgXgXgXgXgX9XhX,Xt < 9 h s s r.N.8.6.4.4.2.",
" .X.X.%.%.2.2.4.4.6.8.Z.c.!.Z D 7XgXgXgXgXgXgXgXgXgXgXgXgXgXgXgXgXgXgXgXgXgXgXgXjXlXjXjXjXjXkXjXjXjXkXjXvXC lXOX3X).N.8.6.4.4.2.",
"X.X.o.%.1.2.3.4.5.5.N.D.i..XV #X#XjXgXgXgXgXgXgXgXgXgXgXgXgXgXgXgXgXgXgXgXgXgXjX<X.XoXoX<XoXXX+X<X<XoXoX<Xd C oXrXn.j.m.5.4.4.2.",
"X.X.o.%.1.2.4.4.6.8.A.K.H.>XB M gXgXgXgXgXgXgXgXgXgXgXgXgXgXgXgXgXgXgXgXgXgXgXjXoXd g d c k j d g c d g g d g ^.b H H /.7.4.4.2.",
"X.o.%.%.3.6.5.5.Z.Z.D.G.b.n 5 e jX9XgXgXgXgXgXgXgXgXgXgXgXgXgXgXgXgXgXgXgXgXgXgXjXlXjXjXjXlXvXvXvXvXvXvXvXvXvXcXmXs.t.g.7.4.4.2.",
"X.o.%.2.@.! ] #.[ =.*.k..Xw M 7XkXjXlXhXgXgXgXgXgXgXgXgXgXgXgXgXgXgXgXgXgXgXgXgXgXgXgX9XjX<Xz .XoX^.c oXc k l Q.r.e.C.M.5.4.3.2.",
"X.o.%.2.Q J & Q P T ! 4 l k bX<XC oXC 4XhXgXgXgXgXgXgXgXgXgXgXgXgXgXgXgXgXgXgXgXgXgXgXgXjX6Xk .X.Xk z oXc g k W.y.g.Z.8.5.4.3.2.",
"X.o.%.1.4.m.m.5.Z.F.S.Q.cXxX+Xh < i < XXjXgXgXgXgXgXgXgXgXgXgXgXgXgXgXgXgXgXgXgXgXgXgXgXgXhXlXjXkXlXlXjXkXcXmXY.F.Z.8.6.4.4.2.1.",
"X.o.%.2.2.#.2.6.8.7.7.b.tX%X X7X5XC vX9XgXgXgXgXgXgXgXgXgXgXgXgXgXgXgXgXgXgXgXgXgXgXgXgXgXgX9XgXgXgXgXgXgX9X'.Z.A.8.8.6.4.4.2.1.",
"X.o.%.%.4.P # = = ; % ~ W.%X|.7X+X.XjXgXgXgXgXgXgXgXgXgXgXgXgXgXgXgXgXgXgXgXgXgXgXgXgXgXgXgXgXgXgXgXgXdXhXtXL.A.q.8.6.5.4.3.2.%.",
"X.o.1.2.3.4.4.6.8.A.S.E.qXxX1X6XdX9XgXgXgXgXgXgXgXgXgXgXgXgXgXgXgXgXgXgXgXgXgXgXgXgXgXgXgXgXgXgXgXgXgXqXqX=XK.A.8.5.5.4.4.2.1.%.",
"o.%.1.2.3.4.5.5.8.A.D.R.fXhXgXgXgXgXgXgXgXgXgXgXgXgXgXgXgXgXgXgXgXgXgXgXgXgXgXgXgXgXgXgXgXgXhXhXgXhX0XiXb.Z.A.N.8.6.4.4.2.2.%.o.",
"o.%.1.2.3.4.5.6.8.Z.S.I.-XgXgXgXgXgXgXgXgXgXgXgXgXgXgXgXgXgXgXgXgXgXgXgXgXgXgXgXgXgXgXgXgXhXfXdXhXhX[.S.Z.A.8.8.6.4.4.2.2.%.%.o.",
"%.1.2.2.4.4.5.Z.Z.~.H G eX9XgXgXgXgXgXgXgXgXgXgXgXgXgXgXgXgXgXgXgXgXgXgXgXgXgXgXgXgXgXgXgXqX;XE.].v.D.A.A.N.5.6.5.4.4.3.2.<.o.X.",
"%.2.2.4.4.5.:.} 7.g.~.b <XwXjXjXhXjXjXhXjXjXjXhXgXgXgXgXgXgXgXgXgXgXgXgXgXgXgXgXgXgXgXgXgXjX+XZ B f.N.A.8.6.6.4.2.&.#.#.@. .X.X.",
"1.2.4.{ O + O   ' S.>.B.=X0X8X5X5X4X<X5X<X6X6X5XhXgXgXgXgXgXgXgXgXgXgXgXgXgXgXgXgXgXgXgXgXjX3X].R ; W T = & Q # # $ $ & @ > L o.",
"2.4.5.:.' =.` S.F.9.R 4 g ^.d d v 8 8 q d < 8 g hXgXgXgXgXgXgXgXgXgXgXgXgXgXgXgXgXgXgXgXgXgXkX-X[ } Z.7.3.4.2.%.&.%.%.%.X. . . .",
"2.#.E #.#.Q % w.~ c.'.9X5X8X5X8XgX8X8X8XgX5X9X9XgXgXgXgXgXgXgXgXgXgXgXgXgXgXgXgXgXgXgXgXgXgXgXqXiXZ.N.8.5.4.4.4.2.1.%.o.X.X. .| ",
"4.] & ! - K o s d #X3XhXhXhXhXhXgXhXjXlXlXlXgXgXjXjXgXgXgXgXgXgXgXgXgXgXgXgXgXgXgXgXgXgXgX0XuX-Xj.N.8.6.4.4.3.2.1.%.o.X.X. .| | ",
"2.4.5.5.V.Z./.A @XjXhXdXgXgXgXgXgXgXv i a a 9XlX4XOX9XgXgXgXgXgXgXgXgXgXgXgXgXgXgXgXgXgX0XtXv.M.N.8.5.6.4.4.2.1.%.o.o.X. .| | | ",
"2.3.4.4.6.8.j.A.V.b.dXqXhXgXgXgXgXgXXXv h a 8 x . X 0XgXgXgXgXgXgXgXgXgXgXgXgXgXgXhXqXqX[.D.Z.A.8.5.6.4.4.3.2.1.%.o.X.X.| | | | ",
"2.3.4.4.6.5.5.8.A.M.'.yXyXqXqXhXdXgXlX6X#Xv . A ,X4XhXgXgXgXgXgXgXgXgXgXhXqXqXhXhXfX[.v.Z.A.A.8.5.6.4.4.3.2.1.%.o.X.X. .| | | | ",
"1.2.3.4.4.6.8.8.8.A.Z.Z.P.b.[.gXqX0XlX8Xc vXG S vXvXjXgXgXgXgXgXgX0XqXhXuXrX-XE.T.P.Z.Z.A.N.8.5.5.4.4.3.2.1.%.o.X.X. .| | | | | ",
"%.1.2.3.4.4.6.6.5.8.N.A.A.Z.Z.T.].yX/.y R (.v C l l .XkXqXqXqXhXhXyX=X'.L.D.S.Z.Z.Z.A.8.8.5.6.5.4.4.3.2.1.%.%.o.X. .| | | | _ | ",
"%.%.1.2.3.4.4.4.5.6.5.8.8.A.A.Z.M.D.&.& } 0.R R I I e.[.=X=X-Xv.I.K.S.Z.A.A.A.Z.8.8.5.6.6.5.4.4.3.2.2.1.%.o.X.X.X. .| | | _ | | ",
"o.%.%.1.2.2.3.4.4.4.5.6.6.5.8.8.8.8.A.F.D.A.F.F.L.L.F.Z.Z.Z.Z.Z.Z.A.A.A.N.8.8.5.6.6.5.4.4.4.3.2.2.1.%.%.o.X.X.X. .| | | | | | | ",
"X.X.o.%.%.1.1.2.2.3.4.4.4.5.5.6.5.5.6.6.5.8.8.8.8.8.8.A.B.N.N.8.8.8.8.5.6.6.5.4.4.4.4.3.3.2.2.1.%.%.o.o.X.X. . .| | | | | | | | ",
" .X.X.X.o.%.%.1.1.2.2.2.3.4.4.4.4.4.4.5.5.5.5.6.6.6.6.6.5.5.5.6.6.5.5.4.4.4.4.4.3.2.2.2.1.%.%.%.o.o.X.X.X. .| | | | | | | | | | ",
"|  .X.X.X.X.o.o.%.%.%.1.2.2.2.2.3.3.4.4.4.4.4.4.4.4.4.4.4.4.4.4.4.4.4.4.3.2.2.2.2.1.%.%.%.%.o.o.X.X.X. .| | | | | | | | | | | | ",
"| | | |  .X.X.X.o.o.o.%.%.%.%.1.1.1.2.2.2.2.2.2.2.3.2.2.3.3.3.2.2.2.2.2.1.1.%.%.%.%.%.o.o.X.X.X.X. .| | | | | | | | | | | | | | ",
"| | | | | |  .X.X.X.X.X.o.o.o.%.%.%.%.%.%.%.%.%.1.1.1.1.1.1.1.1.%.%.%.%.%.%.%.o.o.X.X.X.X.X. . .| | | | | _ | | | | | | | | | | ",
"| | | | | | | |  . . .X.X.X.X.X.X.X.o.o.o.o.o.%.o.o.o.o.o.o.o.o.X.X.o.X.X.....X.X.X. . .| | | | | | | | | | | | | | | | | | | | ",
"| | | | _ | | | | | | |  . . .X.X.X.X.X.X.X.X.X.%.-.&.-.&.-.-.-.,.-.%.-.#.$.-. . . .| | | | | | | | | | | | | | | | | | | | | | ",
"| | | | | | | | | | | | | | | | |  . .|  . . .| -.z.a.a.d.z.z.z.d.x.z.x.a.a.z. .| | | | | | | | | | | | | | | | | | | | | | | | ",
"| | | | | | | | | | | | | | | | | | | | | | | | | _ | _ | | | | _ | | | | _ _ | | | | | | | | | | | | | | | | | | | | | | | | | "
};
