/* XPM */
static char *iqrsj_e4y72[] = {
/* columns rows colors chars-per-pixel */
"64 64 255 2 ",
"   c #1B1208",
".  c #2D0100",
"X  c #280904",
"o  c #350808",
"O  c #27170B",
"+  c #37140B",
"@  c #281A13",
"#  c #361614",
"$  c #1C3017",
"%  c #3A2917",
"&  c #28361B",
"*  c #2A2C14",
"=  c #363822",
"-  c #2F3522",
";  c #480404",
":  c #580609",
">  c #46170C",
",  c #550617",
"<  c #4A1817",
"1  c #581917",
"2  c #4A0A12",
"3  c #690B0C",
"4  c #6B0D13",
"5  c #6A1517",
"6  c #771518",
"7  c #780F12",
"8  c #45291C",
"9  c #562318",
"0  c #413117",
"q  c #6F221D",
"w  c #581023",
"e  c #651727",
"r  c #671D31",
"t  c #751B28",
"y  c #472725",
"u  c #582626",
"i  c #483829",
"p  c #593836",
"a  c #533332",
"s  c #683836",
"d  c #793838",
"f  c #702C2C",
"g  c #1C4C24",
"h  c #244824",
"j  c #374727",
"k  c #265729",
"l  c #335834",
"z  c #286635",
"x  c #326638",
"c  c #29773C",
"v  c #31743B",
"b  c #2C602E",
"n  c #245225",
"m  c #554539",
"M  c #534C39",
"N  c #67473A",
"B  c #725039",
"V  c #776134",
"C  c #7B3645",
"Z  c #307743",
"A  c #5A4945",
"S  c #5A5958",
"D  c #585049",
"F  c #674845",
"G  c #7B4A45",
"H  c #6A5347",
"J  c #74584A",
"K  c #685954",
"L  c #775B57",
"P  c #6C4C54",
"I  c #75624F",
"U  c #796657",
"Y  c #726B58",
"T  c #696967",
"R  c #776B68",
"E  c #75736D",
"W  c #767678",
"Q  c #6E7175",
"!  c #755961",
"~  c #881717",
"^  c #96171B",
"/  c #901015",
"(  c #A61A1D",
")  c #B91E1B",
"_  c #90251F",
"`  c #B0251C",
"'  c #931A23",
"]  c #B61E23",
"[  c #AD1F21",
"{  c #872324",
"}  c #962527",
"|  c #853B37",
" . c #983A36",
".. c #8D322E",
"X. c #BA2727",
"o. c #AB3528",
"O. c #AE2F2D",
"+. c #CB2B1C",
"@. c #CB311E",
"#. c #C81D28",
"$. c #C42423",
"%. c #CA2424",
"&. c #C72A26",
"*. c #D42A26",
"=. c #CA3428",
"-. c #D63526",
";. c #C93031",
":. c #E33935",
">. c #96443B",
",. c #8D443E",
"<. c #B04336",
"1. c #976F34",
"2. c #D24035",
"3. c #CC743D",
"4. c #9B374E",
"5. c #90314B",
"6. c #A33857",
"7. c #A83B48",
"8. c #864747",
"9. c #8F5051",
"0. c #A9485C",
"q. c #A85856",
"w. c #B44F4D",
"e. c #876657",
"r. c #927053",
"t. c #AB6D52",
"y. c #B4506B",
"u. c #886A65",
"i. c #89766C",
"p. c #987967",
"a. c #897B77",
"s. c #966F6D",
"d. c #B36D70",
"f. c #8C5F66",
"g. c #CE4F46",
"h. c #F95E55",
"j. c #E9584C",
"k. c #D26F4D",
"l. c #EC6457",
"z. c #F3675A",
"x. c #E86A52",
"c. c #C65A7B",
"v. c #C75479",
"b. c #C56B69",
"n. c #D47B6D",
"m. c #C96479",
"M. c #D36979",
"N. c #CB7674",
"B. c #D77A77",
"V. c #C87063",
"C. c #F36F66",
"Z. c #D63541",
"A. c #388247",
"S. c #7F847F",
"D. c #B38C1C",
"F. c #AD8B36",
"G. c #9F8330",
"H. c #F59318",
"J. c #ED8F17",
"K. c #F39124",
"L. c #D7A72C",
"P. c #F0AD31",
"I. c #DEA81C",
"U. c #B59652",
"Y. c #898678",
"T. c #968473",
"R. c #A78877",
"E. c #AA937B",
"W. c #B7997E",
"Q. c #AA8A74",
"!. c #A69459",
"~. c #CEAA4B",
"^. c #D98377",
"/. c #E3847A",
"(. c #D8A351",
"). c #E0C558",
"_. c #8A7E83",
"`. c #C65B84",
"'. c #7E878B",
"]. c #888887",
"[. c #968B87",
"{. c #97938C",
"}. c #8D9294",
"|. c #999697",
" X c #8C9090",
".X c #B69B83",
"XX c #BA9A83",
"oX c #B89985",
"OX c #A59C9A",
"+X c #A59287",
"@X c #BCA18A",
"#X c #BAA588",
"$X c #A8A59C",
"%X c #B6A796",
"&X c #B9B896",
"*X c #999FA2",
"=X c #9CA2A5",
"-X c #A9A8A8",
";X c #B4ABA9",
":X c #B7B5AC",
">X c #AEB3B5",
",X c #B9B6B5",
"<X c #ADAEAE",
"1X c #A79B9E",
"2X c #C39C89",
"3X c #D78A86",
"4X c #C3A38D",
"5X c #C5A58C",
"6X c #C4A391",
"7X c #C8A894",
"8X c #D2B58D",
"9X c #E3BC98",
"0X c #C4BBB8",
"qX c #CABEAD",
"wX c #BDC1B2",
"eX c #EAD199",
"rX c #C8C4B9",
"tX c #D6C7B9",
"yX c #F8DAA5",
"uX c #EDCDA4",
"iX c #FEE2AA",
"pX c #FDE2A5",
"aX c #FFEAB7",
"sX c #FFF5B8",
"dX c #D6C194",
"fX c #B6BDC1",
"gX c #C6BCC0",
"hX c #BFC7C9",
"jX c #CECCCB",
"kX c #C7C5C3",
"lX c #DAD5CD",
"zX c #DDDCDB",
"xX c #D7D7D5",
"cX c #CED0D1",
"vX c #E3DDD6",
"bX c #E4D7CB",
"nX c #F3EFDB",
"mX c #DCE5E7",
"MX c #E4E4E3",
"NX c #ECEBEA",
"BX c #E7E8E7",
"VX c #F0EEEC",
"CX c #FCFFE7",
"ZX c #FCFCEC",
"AX c #F6F6E9",
"SX c #EBF6F9",
"DX c #F4F4F4",
"FX c #F5FAF4",
"GX c #FBFBF4",
"HX c #FAF6F9",
"JX c #F5FBFC",
"KX c #FEFEFE",
"LX c #F8F6F7",
"PX c #E9F1EE",
"IX c #D6E0CB",
/* pixels */
"KXKXKXKXKXKXKXKXKXKXKXKXKXKXKXKXKXKXKXKXKXHXLXKXKXcX].A a 8 < y a D ].kXKXKXKXGXKXKXKXKXKXKXKXKXKXKXKXKXKXKXKXKXKXKXKXKXKXKXKXKX",
"KXKXKXKXKXKXKXKXKXKXKXKXKXKXKXKXKXKXKXKXKXKXKX:XP 2 X O : : : : o $   o p OXHXKXHXKXKXKXKXKXKXKXKXKXKXKXKXKXKXKXKXKXKXKXKXKXKXKX",
"KXKXKXKXKXKXKXKXKXKXKXKXKXKXKXKXKXKXHXKXKXkXA . ; ; k k 1 ~ 6 > j x j : ; . i ,XKXKXHXKXKXKXKXKXKXKXKXKXKXKXKXKXKXKXKXKXKXKXKXKX",
"KXKXKXKXKXKXKXKXKXKXKXKXKXKXKXKXKXHXKXDXR   X 5 5 = v v 8 ' 9 l c c b 5 ' 6 ; . R FXKXHXKXKXKXKXKXKXKXKXKXKXKXKXKXKXKXKXKXKXKXKX",
"KXKXKXKXKXKXKXKXKXKXKXKXKXKXKXKXHXKXlXi . j x 9 9 x b k & > j Z Z c c 1 ^ ^ ~ 5 . m VXKXGXKXKXKXKXKXKXKXKXKXKXKXKXKXKXKXKXKXKXKX",
"KXKXKXKXKXKXKXKXKXKXKXKXKXKXKXDXKXgX+ : 9 c x * @ i m A A m i & h b c 0 / 6 1 % j O i AXFXGXHXGXKXKXKXKXHXKXKXKXKXKXKXKXKXKXKXKX",
"KXKXKXKXKXKXKXKXKXKXKXKXKXKXJXKX0Xo 3 t j h = J R..XXX4X4X4XXXR.U i & % 1 = b c c = ; K KXKXKXKXKXKXKXKXKXKXKXKXKXKXKXKXKXKXKXKX",
"KXKXKXKXKXKXKXKXKXKXKXKXKXHXKXlX@ h u 2 & e..X4X2X.X.XW.W.W.W.2X6X2Xp.y $ Z c v b 1 ~ . {.KXrX{.a.a.i.a.|.LXKXHXKXKXKXKXKXKXKXKX",
"KXKXKXKXKXKXKXKXKXKXKXKXKXKXLXa * A.& a E.4X.X.X.XXX.X.X.X.X.X.X.X.X4XoXM $ v Z j 5 { 4 # Y.E.8XeXeXeXeXQ.K VXKXKXKXKXKXKXKXKXKX",
"KXKXKXKXKXKXKXKXKXKXKXKXKXKXa.; l h N %X@XW.W.XXXXXXXXXXXXXXXX.XXXXXW..X4XJ & Z % / ' ' ; e.nXiXiXiXiXiXsXp.|.KXHXKXKXKXKXKXKXKX",
"KXKXKXKXKXKXKXKXKXKXKXKXKXxX> 6 & H 4X.X.XXXXXXXXXXXXXXXXXXXXXXXXXXXXX.X.X4XJ * 9 ~ 5 1 + 8 yXpXpXpXpXpXpXE.{.KXGXKXKXKXKXKXKXKX",
"KXKXKXKXKXKXKXKXKXKXKXKXKXE % > m 2X.X.X.XXXXXXXXXXXXXXXXXXXXXXXXXXXXX.X.X.X@Xp O j k z z O 8XaXpXpXpXyXyXU kXKXKXKXKXKXKXKXKXKX",
"KXKXKXKXKXKXHXKXHXKXHXKXNX= l i .X.X.X.X.XXXXXXXXXXXXXXXXXXXXXXXXXXXXX.X.X.XoXE.- v c c x . T.sXyXiXiXyXXXR KXGXKXKXKXKXKXKXKXKX",
"KXKXKXKXKXKXKX:XE -XGXKX<X+ - p.@X.X.X.X.XXXXXXXXXXXXXXXXXXXXXXXXXXXXX.X.X.X.X6XL h v v i : Y aXpXiXyX9XH zXKXHXKXKXKXKXKXKXKXKX",
"KXKXKXKXGXKX,XE OXE jXKXY.X N @X.XXXXXXXXXXXXXXXXXXXXXXXXXXXXXXXXXXXXXXXXXXXXXXXoX- z b 1 4 B aXpXyXuXe.OXKXHXKXKXKXKXKXKXKXKXKX",
"KXKXKXKXKX:XS {.rXa.jXKXY * Q.2X.XXXXXXXXXXXXXXXXXXXXXXXXXXXXXXXXXXXXXXXXXXXXXW.5XI h i ^ 7 N aXyXeX4XK KXHXKXKXKXKXKXKXKXKXKXKX",
"KXKXKXKXxXT -X;XwXY.rXKXD i @XW..XXXXXXXXXXXXXXXXXXXXXXXXXXXXXXXXXXXXXXXXXXXXXXX.XE.* < 6 1 N aXeXuXJ ,XKXHXKXKXKXKXKXKXKXKXKXKX",
"KXKXKXKX:X{.rX:X:X;X$XKXA M 5XW.XXXXXXXXXXXXXXXXXXXXXXXXXXW.XXXXXXXXXXXXXXXXXX.X.X6Xm & j & m uXdX4XK KXKXKXKXKXKXKXKXKXKXKXKXKX",
"KXKXKXKXkXE ,X:XrX{.,XKXD I 5XW.XXXXXXXXXXXXXXXXXXXXXX@X.X4X4XXXXX4XXXXXXXXXXX.X.X6Xu.h A.z i 9XuXI ;XKXKXKXKXKXKXKXKXKXKXKXKXKX",
"KXKXKXKXKX:XT -X].].DXKXR U 5XW..XXXXXXXXXXXXXXXXX@XR.f B p.p.oXE.i.E.@XXXXXXXXX.XXX.X= v h y 9X8XK HXKXKXKXKXKXKXKXKXKXKXKXKXKX",
"KXKXKXKXHXKX,XE -XKXGXKX|.J 5XW.XXXXXXXXXXXX.XXX2X.Xq O.O.7 { 1 1 4 9 p.@XW..XXXXXXX4XA h 8 1 9Xp.|.KXGXKXKXKXKXKXKXKXKXKXKXKXKX",
"KXKXKXKXHXHXKXVXKXKXGXKXjXF 4XW.XXXXXXXXXXXX.X.X6X9.o.z.g.[ [ ~ O.#.^ 9 .X2XW.XXXXXX4Xp.O 5 : .XI MXKXGXKXKXKXKXKXKXKXKXKXKXKXKX",
"KXKXKXKXKXKXKXVXjX0XDXKXHXD E.XXXXXXXXXXXX.XXX.XR.f X.( ;.&.&.j.x.x.2.~ d XX@XoXXXXXXX.X= % * M a.KXGXKXKXKXKXKXKXKXKXKXKXKXKXKX",
"KXKXKXKXKXKXKX|.T E -XKXKX[.I 5XW.XXXXXXXX.X2X4Xa 6 t.e.~ =.[ ^ / X.j.2.3 8 T.4XXXXX.X4XJ k x X ,XKXGXKXKXKXKXKXKXKXKXKXKXKXKXKX",
"KXKXKXKXHXKXkX].:X$X].KXKXvXp XXXXXXXXXXXXXX4Xe.+ 6XCXCXq.^ 8.R.T.| ^ l.O.3 < L 2XW.XX2XR.& j ; ;XKXHXHXKXKXKXKXKXKXKXKXKXKXKXKX",
"KXKXKXKXKXKX,XY.rX[.:XKXHXKXa.J 7XoXXXXXXXXXXX< +XGXnXZXE.p.CXZXZXnXe.} :.7 ' 6 B @XXX.X6XH + 1 a HXKXKXKXKXKXKXKXKXKXKXKXKXKXKX",
"KXKXKXKXxXzXkXY.jX].jXKXKXKXDXa R.4X.XXXXX4Xe.a ZXAXAXAX%XnXAXnXnXCXCXB X.} / ;.4 N #XXX.XW.% = O [.KXLXKXKXKXKXKXKXKXKXKXKXKXKX",
"KXKXKXKXvXV vX XW {.HXKXKXKXKX0Xy XXXXXXXX6X8 +XKXAXKXvXrXKXZXAXZXAXGXwX..X.~ $.#.3 H 4XW.#XY g j # vXKXKXKXKXKXKXKXKXKXKXKXKXKX",
"KXKXKXKXbXD.7XKXxXKXKXKXKXKXHXKX{.i 4XXXXXR.% vXGXGX:Xa.nXT Y.KXAXCXZXAX| ] ( %.+.( 2 e.4XE.2Xm > : L KXKXKXKXKXKXKXKXKXKXKXKXKX",
"KXKXZXJXW.D.qXKXKXKXKXKXKXKXKXHXKX].i oX7XJ A KXZXKX,XY.nX@ D KXZXZXZXGXe.) $.%.$.] ~ 9 +XXX2XR.@ % X wXKXJXKXKXKXKXKXKXKXKXKXKX",
"GXGXKXjX1.%XGXZXKXKXKXKXKXKXKXKXHXKXOXa T.N u.KXGXGXKXkXvXvXxXDXGXGXZXGXG ) &.%.%.] ^ 1 I 6X.X6XJ g & A KXHXKXKXKXKXKXKXKXKXKXKX",
"GXKX,X,XrXKXCXDXKXKXKXHXKXHXHXKXKXHXKXlXT 8 R.KXGXFXKX_.<XKXGXGXGXDXGXlXf =.&.%.%.X.^ 4 i XX.X.XW.8 < < jXKXKXKXKXKXKXKXKXKXKXKX",
"KXvXY HXKXmXNXKXAXKXKXKXKXKXKXKXKXKXHXKXFXs d.KXGXKXvX>.r.FXKXGXGXGXKXu.<.@.&.&.%.$.( 5 N .XXXW.#XH % + [.KXHXKXKXKXKXKXKXKXKXKX",
"KX%Xr.KXKXzXY vXKXKXJX<XxXjX}.NXKXKXKXKXxXd d.JXKXKXs.2.<.u.NXKXKXDXY.d O.+.=.&.%.$.( 4 p.@XXXW.#Xp.h * R KXHXKXKXHXKXKXKXKXKXKX",
"KXXXG.BXKXKX%X!.GXKXkXfX}.}.hX|.KXHXGXKXjX| w.-XmXs.g.j.j.<.| f.R s f o.=.=.+.%.&.$.( 1 R.#X.X.X.X.X- o i.KXDXKX-XT ].GXKXKXKXKX",
"KX&XD.E.GXKXtXF.vXDXQ PXzX>XBX|.KXHXGXKX,X..z.7. .g.h.j.j.h.j.<.o.=.2.-.-.-.*.&.%.%.^ 9 W..XXXXXXX2XM O {.KXKX<X}.SX}.}.KXKXKXKX",
"KXmXU.L.%XKX~.I.qX<X-X*XKXcXcX<XKXHXFXKX:X .j.g.h.j.j.h.l.g.<.>.>. .;.:.-.-.*.&.%.%.~ s @XW.XXXX.X2XM $ lXKXBX'.JXSXmXQ HXKXKXKX",
"GXKX@XP.U.zXU.U.lX*XKXhXkXKXJX,XBXKXFXKX;X .g.k.h.z.C.w.8.i.].0X%X+XG o.-.-.-.&.%.&.3 L 4XW.XXW..X6X@ ].KXKX_.cXSXSXmXT KXKXKXKX",
"FXKXrXL.~.kXu.zXKX-X<XKXPXJXJX<X,XKXKXKX,X .g.w.V.q.e.[.xXKXMXGXIXwXT.> ;.-.=.+.+.` > T.XXW.XX5XE.m {.KXKX].,XJXJXJXQ -XKXHXKXKX",
"GXKXtXL.~.zXBXKXJXKX|.<XKXHXNXY.L +Xd.a.F >.C.w.>.d i.+Xa.[.L F p 1 1 y 6 -.-.&.*.^ a 6X4X2XE.I A ,XKXNX].>XJXKXcXS -XKXKXKXKXKX",
"GXKXrXL.~.NXAXHXFXLXKX-XhXKXNXJ d d d G p >.C.C.C.C.w.: e , + + e t # # + o.-.&.$.4 M E u.L K OXGXKXNX{.zXmX=X-XR MXKXNX<X].Q kX",
"ZXKX#XI.U.KX$XkXKXLXKXDX}.KX|.T a.lXNXKXcX| C.z.l.l.z.f t < O O < e O O   q -.+.X._ | P R -XMX-X].$X|.xXPXJXSX}.D kX$X X-XmXhXT ",
"BXjXU.P.F.MXdXQ.BXGXKX<XMX<X-XzXJXKXKXKXMX| z.l.z.l.z. .< O # @ # # # O @ < @.*._ ,.7...} f a >XNX,X}.cX'.<XKXJXW }.mXPXJXSXSXW ",
"{.Y ~.H.L.+X).~.R MXKX{.>XS.KXKXHXGXGXKXDXG x.C.j.g.w.d # @ @ @ @ @ # O @ O ` ;.u kXlX$Xs.u OXKXHXKXJXSXmXS fXKXcX}.KXJXJXSX*XT ",
"!.1.L.J.P.U.F.~.V rXKXzX].zXKXHXKXKXKXHXKXu.w.w.| 5.f u u # O O O O O @ @ O { ~ R KXKXKXKX,X|.KXKXKXNXDXJX*XQ kXPX'.<X XQ T W NX",
"F.).P.J.J.P.~.~.F.#XKXKXKXKXHXKXKXKXKXHXKX{.u 9.9.C d C 8.9.8.C a # O O @ O 5 q jXKXGXHXKXKXR OXjXW |.NXJX=XBXDXSX].S kXxXNXKXKX",
"r.P.P.H.J.H.P.P.P.#XKXHXFXHXKXKXKXHXKXKX0Xe.8.d 9.d.m.M.`.`.`.c.d.y.9.y o @ < | BXKXGXKXKXKXLX].T W ,XNXcXBXSXSXJX].OXKXKXKXKXKX",
"*XF.P.H.K.K.J.P.I.+XDXKXKXKXKXKXKXKXlX+XG s 9.B.B.M.m.m.c.c.v.v.v.c.`.d.C o > ~ 0XKXHXKXKXKXKXKXKXKX<XT |.KXKXSXfXxXW cXKXKXKXKX",
"KXT.L.K.K.K.H.H.K.B f.u.[.-X:X:XOXp.s.G 8.N./.N.m.m.c.v.y.y.y.y.y.y.v.`.`.C + ^ oXKXHXKXKXKXKXHXKXKXKXKX}.]. XQ S SXmXW <XKXHXKX",
"GXDXr.P.H.K.K.J.P.t.N.n.d.q.q.q.y.b.8.9.3XB.b.M.c.y.6.6.5.d r r 5.5.6.0.v.c.r ~ s.KXHXKXKXKXKXKXKXKXKXKXHXjX,XVX|.>XKXJXS BXKXKX",
"KXNXN U.H.J.3.k.1.t.w./.B./.3X3Xq.f q.3XN.M.m.y.4.5.5.u < , , w 5.6.6.6.y.6.e ..8.KXGXKXKXKXKXKXKXKXKXKXHXKXKXKXNXQ  XQ  XKXKXKX",
"KX:XB t.3.k.B.^.n.n.B.N.N.M.0.d s d.B.M.M.y.4.t f s < o 2 , w , , , e e s f.R >.| PXKXKXKXKXKXKXKXKXKXKXKXKXKXKXKXVX=X,XKXKXKXKX",
"KX1X9./.b.V.^.^.y.4.4.6.5.f f q.B.B.B.M.0.5.f <.<.O.o. ...u < p P i.a.;XkXKXS.9.| BXKXKXKXKXKXKXKXKXKXKXKXKXKXKXHXKXKXKXKXKXKXKX",
"KX0X8./.n.^.n./.q.d d d 8.q.N.B.B.M.v.4.6.C < ~ 7 ; 7 ^ } o.<.8.G U u.[.a.u.s  .s KXKXKXKXKXKXKXKXKXKXKXKXKXKXKXKXKXHXKXKXKXKXKX",
"HXKXP d./.n.n.^.^.B.N.^.^.B.B.B.b.0.4.6.r ! 0XG s K < ^ ~ ^ ) &.;.) / 3 4 6 6 ; OXKXHXKXKXKXKXKXKXKXKXKXKXKXKXKXKXKXKXKXKXKXKXKX",
"HXKXkXu b.B.B.^.n.B.B.B.B.B.M.y.6.6.5.u {.KXKXKXDXKXa.: } ( ;.&.&.*.&.X.{ p a.0XKXKXKXKXKXKXKXKXKXKXKXKXKXKXKXKXKXKXKXKXKXKXKXKX",
"KXKXKXOX< 9.m.M.B.B.B.N.d.0.6.6.5.r L xXKXHXHXKXKXKXKXA 4 } &.*.&.&.$.*.^ R KXKXKXKXKXKXKXKXKXKXKXKXKXKXKXKXKXKXKXKXKXKXKXKXKXKX",
"KXKXHXKX<Xy e 5.0.0.0.6.6.4.5.r A -XKXKXJXGXKXKXHXJXKXMX8 7 X.&.&.%.$.%.^ m KXHXHXKXKXKXKXKXKXKXKXKXKXKXKXKXKXKXKXKXKXKXKXKXKXKX",
"KXKXKXKXKXMX[.A u r r r r p L ;XLXKXKXKXKXKXKXKXKXKXHXKXjX< ~ &.+.$.#.#.X.1 zXKXHXKXKXKXKXKXKXKXKXKXKXKXKXKXKXKXKXKXKXKXKXKXKXKX",
"KXKXKXKXHXKXKXKXzXwX:X:XkXBXKXKXJXJXKXKXKXKXKXKXKXKXKXHXKX0X> ^ *.X.X.$.$.^ e.KXHXKXKXKXKXKXKXKXKXKXKXKXKXKXKXKXKXKXKXKXKXKXKXKX",
"KXKXKXKXKXKXHXKXKXKXKXKXKXKXHXHXKXKXKXKXKXKXKXKXKXKXKXKXFXKXkX< ~ X.#.X.] #.: 0XKXKXKXKXKXKXKXKXKXKXKXKXKXKXKXKXKXKXKXKXKXKXKXKX",
"KXKXKXKXKXKXKXKXKXKXHXHXKXKXKXKXKXKXKXKXKXKXKXKXKXKXKXKXKXHXKXzXa : ( [ X.] 7 a.KXJXKXKXKXKXKXKXKXKXKXKXKXKXKXKXKXKXKXKXKXKXKXKX",
"KXKXKXKXKXKXKXKXKXKXKXKXKXKXKXKXKXKXKXKXKXKXKXKXKXKXKXKXKXKXLXKXFXa.1 3 ~ { : a.KXGXKXKXKXKXKXKXKXKXKXKXKXKXKXKXKXKXKXKXKXKXKXKX",
"KXKXKXKXKXKXKXKXKXKXKXKXKXKXKXKXKXKXKXKXKXKXKXKXKXKXKXKXKXKXKXKXKXKXxXu.u u p zXKXKXKXKXKXKXKXKXKXKXKXKXKXKXKXKXKXKXKXKXKXKXKXKX"
};
