/* XPM */
static char *sxyvd_8g0lw[] = {
/* columns rows colors chars-per-pixel */
"64 64 66 1 ",
"  c #535453",
". c #5D5D5C",
"X c #5F6060",
"o c #636464",
"O c #686867",
"+ c #676868",
"@ c #6C6C6C",
"# c #6F706E",
"$ c #71716F",
"% c #6F7172",
"& c #747473",
"* c #787775",
"= c #797977",
"- c #757778",
"; c #777878",
": c #7C7C7B",
"> c #807F7C",
", c #7F807F",
"< c #81817E",
"1 c #7E7F80",
"2 c #7F8081",
"3 c #848483",
"4 c #888784",
"5 c #878887",
"6 c #898986",
"7 c #858789",
"8 c #87888A",
"9 c #8B8C8C",
"0 c #908F8C",
"q c #8F908F",
"w c #91918E",
"e c #8D8F90",
"r c #8F9092",
"t c #939494",
"y c #989794",
"u c #979897",
"i c #989897",
"p c #9B9A97",
"a c #939598",
"s c #949698",
"d c #96989A",
"f c #97999C",
"g c #9B9B99",
"h c #9C9B99",
"j c #9C9C9A",
"k c #9D9D9A",
"l c #999B9C",
"z c #9B9D9E",
"x c #9E9F9E",
"c c #A09F9D",
"v c #9FA09E",
"b c #A2A19F",
"n c #9B9DA0",
"m c #9C9EA0",
"M c #9FA1A1",
"N c #9FA2A3",
"B c #A3A3A0",
"V c #A0A1A3",
"C c #A3A3A2",
"Z c #A1A3A4",
"A c #A2A4A5",
"S c #A4A6A6",
"D c #A4A6A8",
"F c #A7A9AA",
"G c #A9ABAB",
"H c #AAACAD",
/* pixels */
"t<wigxbgky939bVcgydxzxsddZFFlzMgiggyyytyygVbVVihyVVgykxxxxVtuxVV",
"yyiiylMzzdstdAMt9azzVVy9mAAZfflgwzDVMAMMdMFGVzgkkgylydgllxMzzyxV",
"yyttmzzxMmdzllZw:adaaszldzAsstrd9axFAxMmdgzgxxgiy99zds9ttdgayyxV",
"ywytMZlasZlssld9:9razadmlmMzzss94txgzzzalgdaxy9yyw9gdttrysydzayx",
"y9tzMVasllddlxZa<yssMmdazddrtsmy4txdtddgzaaazztygyylgstdzzxyta9e",
"w45MAmmlMnlzlZMr>ydssmdtrsZmltsd49zMmyllggradly4w0tdzmtzzmlayttd",
"y33zMMzMlsdMdta9<rslzzaZzsazzzsy9tgSzzlMxxsAzmt69999tsexty959tgZ",
"9=3glMdzy99ddte939szlazZZAzlzzzt6VMddgzzVmdMmd96393atrtdyd57eryt",
"w=:zyrdAzeamza99<3MnmfdlxMmFZsmt4gmgalmMSdzMxg96<33ltdzagyr7eayr",
"t<=dyazmx9dDlast65ZsZlaMlxfnmdzt3rtddrdzsrdMxzwiy34yartstgte9e9y",
"9<*9zdatstlmsyAg99FdzlmMdsszmlfa4tyazt5ydgdgdztww33ddt99ar9599ts",
"w3=3dzaatdfsalZy94Zzszlssrdfasst39stslyyyzlMyyt66339eeattsga99re",
"w3=:VMlzlmtssssy53zllltzae3azsat<999glxxazMSlgt693&3gtaxlymtr39a",
"yw6<sr93397e333943399:34::@=:*=63=&@5arr99rt579w96&&5:194:333:34",
"hyt699wy9944<39t9tww999tt966639ywyy699433<3<::9w0ww69wwyikyggxgg",
"y69tgxhkbkkiyyyyiigggguiggtwtyygyw9tiykgighkggkyytyiibVVvvkVVVbx",
"y99ixgSVxVbxyuiyggyggyyyggt99wyyt969yyigigwgxkxgyukgyVbVvxgkkVxy",
"zt9ymdmMkbggdzymlzxVAt9ygg9=9w99tgttzzlyt9yxgdggaszr9aglgiwwadty",
"taedd5azggiyZVlzlzrlMmZaty9:ytayddxgaaayi4ysattaxgdyrsVldy6wt9sg",
"rsz9tt9rt9talztrtzlsmala96w3ttttarydtyyxi9agdtrtrlgdetasgy6a95ay",
"tsarsztza=3yMttttgzsslzlr96,e9tyyatytyeti69zxgxs9adty99gdy6ytass",
"atdsldtsy=39dsstae8rszzMd99:eryyta9rtAtgyw9dvVdarldyatytgy3adtta",
"Vgtdralad3:9tafsslatttzse4339errtrt9aMzxy999zzyaydrtdtt9ay4rrrdl",
"xsslaazzl:=5ttaatlazttse996<e9999rtryyryw69rzzxsgat9xye5tw3tt9sz",
"dMmlgaymm<6tz9altasmsadla99:7ttattgyyaeai6yMMzxdatttlxard9&9gtdM",
"aaallmtal99tyygMmsstraadt9962tdtyat9yzdyy<txzVdgtdartgtty0&9r9aM",
"MzslMAmtd99yxlddxld9aasss9493ay9tr9rddrty3rraMzzesgryaaraw:9r99a",
"yadmdgzds96adysdxla9ayxgs9333at9tr99drrty6tytgddsrsd99erg0:9zt99",
"azMzasssyw69gydalar9admdy999:r9aaret9ra9w93ttrtzm99ar99aM069aa9e",
"yaarsaadd99tgzt99rrrtdMss99w=adtr999tr5393:4sar9rt39aret99w:9yts",
",=;:3:435tyytytty93359973399<3932:3&&==:9==&::=:<:===3=&9ik<4ra9",
"ywww96w6wgigytiigyytytwt49999999996436wyiw9wiyyggiiit3*:ikxi99wi",
"wtgggxxgggiiigiiy4wtwttt999ttyttygyttkitikhkkhkVbkxgw9yiiykywikV",
"9699yxgt9rayttyuq939esdd975dZMttaytywyt9tyyygyvxi9yuggkgtytt9ykk",
"6<34adr977te5esl93*5eateee5tzrar99w9rgtrdysytazdxy69zMzxryaatyzt",
"yy<9ls533ta95rzs99&:9tr85aarma97ty93yzgdxdty49aza359adtdzayaagda",
"90:4dt9339rre99la9&2taae8r5999rrdiy:uzzd99dtt99y9334ttygt9easdy9",
"9532se5999585ael9=&27asrss5e9tarsgy:xaar7tt9t99ds435adyzgrttdza9",
"969:ta9:5r925ratr9=27sr978estse99yw=rxg9retdtrtrd939dtdddrezld9:",
"6<<3drt35ae5959l9w=-7y978er9ane99y9*9zx9gt9aar99dt69ddgeadgrrt97",
"<>62rr99ea77749z96==7za88sedZAt9dt6&tggdzdsrt94ez999Mdt9dsy59ar9",
"w9=:e5358e9t55azy0&*esezas7ZHmgtt96&rxy9r3tya999t939dg99ad979at5",
"r6:-d77979afr9adrw:%sdtzsasZDt3re9w<9mzdgartarayat3=tsaadla99ate",
"9t6:a3799sa8atdnt0:*daaresfslrre599:5gxyMxdrrr5ag9:5ysdyyyda9rst",
"9y3;r9589d93redsy9=&ddzarnsasrss99y43atdadlgdaat96<4agdydrer99ss",
"39:%9tfrra53rrlMyy4.r7r9ast9tdztg966#33t9zdeytea4:=@ta9ar23223::",
"66$ ++&*@.oo+@=&@:to.+X .@o+@&==*496*&@+o@&@@&@*<49&..@#**@..+@3",
"933=$*<49*$&&:3:3ww6=$@&==&33636:6y99y94<3<:9yykkkiy3699yywt9wyy",
"=>wbbVVxx99hkbkkii6y9969634yxVywyiy<3kkiyyyygvvxbVbkbbVbkkgkxkxk",
"tugxVggkyyxxSVVVSVxzVsy:3=aZFMdsyyxkgxxgy3rxMMVldgxzVAGVkiygkxxx",
"AHVxxxdy6yAzzVMxddzgly9&::3tlgddsagagFMM5:rxdgatgzxmMxZxyygdxzsz",
"MAxzdSzy9tSdgzxMayagxts9::3ttlsayryadMzg96yMdgdyyzAxgdMgikxlmdzg",
"amadtlxt<9mrtgdddzsdgdal3=7letrsa9yzgddzt3admyMydlmlzxyyw6dgmdzd",
"lsdzldz9<9Mlay9rdayldzgt2&2aarrdayyatadgt6dzdstt9Mzttdxw639mMzga",
"Vlaamdsy44zzsdtsr9t9adgt:O*9efregMddayst43gldzdsdgdya9d9=39Mzesd",
"sgtezlMg94rdtssllrtrrdla4*&rMzsylstrdAz99&9ggMaaddlmgrd4:39mMsys",
"zzzltlmt35st9daaasladxls9==sMZzZssdrglmst39ttg9ttasdzgy96:estret",
"ddzatzzt34zdamtdtszasass9:3mrzZsayddrtzs94eMMs9tMdaalVx964rataa9",
"adl9tsmw<5xytdlggzlyzzaag::fdll9adMzr5rat3dzzzzdgxzyxxzt96aertda",
"eyms5tmy<=gdadlyxgdxzlzMy*;Mmsgraatzyeayg6dsttsargmxysMu6:aaxzds",
"3dMMtazw>=yxzdatlMmzllxzt<@9lzmzdras9sazq3gyrrratdMdytgy93dytmdt",
"sadzrtg<$&5gar97525e9757ew:&&=1722*&&@399<9dareddllldd9w9=areldz",
"331=339364=:<4:&==:333:=:thy99694:::6&@=963433=::::4:33ty@&23495",
"=:<394ww0yyikhytwigiyhgw69yyiyy99tyt9999ywyyw0y9tikkiyxkkw=&=*=="
};
